<svg width="476" height="282" viewBox="0 0 476 282" fill="none" xmlns="http://www.w3.org/2000/svg">
<path d="M214.148 0.00585938L223.876 1.22363L223.897 1.22754L240.515 4.06934L240.546 4.0752L240.577 4.08496L255.237 8.57227L265.025 15.1104L265.054 15.1289L271.969 21.2432L271.976 21.249L271.981 21.2549L279.683 28.5635L279.705 28.5859L279.726 28.6104L287.047 37.5762L287.067 37.6123L293.552 48.9824L293.561 48.9971L293.568 49.0127L299.242 60.7891L299.264 60.833L299.275 60.8809L302.113 71.8438L302.12 71.8711L303.34 80.4258L303.342 80.4434L304.558 91.8135L304.564 91.8789L304.555 91.9443L304.157 94.4619L309.605 93.0078L309.644 92.998L309.683 92.9932L317.383 92.1816L317.433 92.1758L317.482 92.1807L325.993 92.9932L326.047 92.998L326.098 93.0146L335.015 95.8564L335.078 95.877L335.135 95.9141L342.024 100.381L342.062 100.404L342.094 100.435L348.173 106.12L348.18 106.126L352.701 110.656L356.004 117.274L356.018 117.328L357.237 122.216L357.24 122.232L358.051 126.699L358.059 126.743V133.338L363.035 131.201L363.055 131.193L363.074 131.187L370.369 128.75L370.403 128.738L370.438 128.732L374.896 127.92L374.94 127.912H385.146L385.174 127.915L392.469 128.728L392.508 128.731L392.545 128.742L401.462 131.179L401.504 131.189L401.543 131.208L408.433 134.457L408.448 134.464L408.463 134.473L415.758 138.533L415.79 138.551L415.82 138.574L421.089 142.635L421.122 142.66L421.151 142.691L426.015 147.971L426.026 147.983L426.038 147.997L429.319 152.106L429.345 152.163L430.673 155.092L436.523 154.312L436.557 154.307H440.685L445.601 155.128L445.611 155.13L451.285 156.348L451.33 156.357L451.373 156.376L456.236 158.406L456.263 158.417L456.287 158.431L459.935 160.461L459.965 160.478L463.234 162.935L463.263 162.956L463.288 162.98L469.367 169.072L469.396 169.101L469.42 169.135L473.473 174.819L473.521 174.887L473.545 174.967L474.761 179.027L474.775 179.075L474.78 179.125L475.186 183.592L475.995 191.709L476.001 191.765L475.994 191.82L475.184 198.317L475.174 198.393L475.143 198.462L473.123 202.911L471.51 207.359L471.487 207.422L471.449 207.476L468.612 211.536L468.57 211.597L468.512 211.643L462.838 216.109L462.812 216.13L462.782 216.147L455.893 220.208L455.841 220.238L455.784 220.255L446.463 223.098L446.416 223.112L438.261 223.929L438.21 223.935L438.159 223.929L430.609 223.133L428.526 227.31L428.508 227.347L428.484 227.38L425.241 231.847L425.219 231.879L425.19 231.906L421.948 235.154L421.921 235.183L417.431 238.454L417.397 238.479L413.325 240.518L407.658 243.763L407.608 243.791L407.554 243.808L399.447 246.244L399.434 246.248L399.419 246.252L392.528 247.876L392.499 247.883L392.469 247.887L385.174 248.698L385.146 248.702H371.709L371.674 248.696L365.999 247.885L365.97 247.88L365.941 247.873L359.861 246.248L359.82 246.237L359.781 246.219L354.513 243.783L354.477 243.767L349.572 240.49L349.564 240.484L345.106 237.236L345.093 237.227L345.08 237.216L343.306 235.733L342.641 238.181L342.633 238.209L342.622 238.235L341.001 242.296L340.981 242.344L340.953 242.388L337.701 247.274L337.69 247.288L333.618 252.592L333.596 252.615L328.339 257.88L323.07 263.565L323.044 263.594L323.014 263.618L315.313 269.709L315.292 269.726L308.784 273.801L308.746 273.825L308.705 273.842L302.626 276.278L302.607 276.285L302.589 276.291L296.119 278.315L296.12 278.316L288.015 281.158L287.964 281.176L287.911 281.183L281.396 281.999H274.856L274.832 281.996L266.321 281.185L266.314 281.184L256.58 279.965L256.53 279.958L238.246 273.852L238.189 273.833L238.139 273.801L231.654 269.74L231.62 269.719L231.59 269.692L228.348 266.851L228.342 266.845L228.336 266.84L222.256 261.154L222.237 261.138L222.221 261.118L220.114 258.706L217.278 261.549L217.262 261.564L217.245 261.579L212.381 265.64L212.36 265.657L212.339 265.672L205.043 270.545L205 270.574L204.951 270.593L196.846 273.842L196.806 273.857L196.763 273.867L189.044 275.495L189.024 275.498L179.702 276.716L179.65 276.723L179.598 276.719L169.466 275.906L169.411 275.902L169.359 275.886L160.038 273.044L160.004 273.033L159.972 273.019L153.893 270.176L153.876 270.168L153.859 270.158L147.374 266.504L147.353 266.491L147.331 266.477L140.441 261.604L140.429 261.595L140.417 261.586L134.338 256.713L134.286 256.672L134.247 256.618L129.789 250.527L129.764 250.493L129.745 250.455L126.098 243.146L126.067 243.086L126.055 243.021L124.839 236.93L124.833 236.896L123.788 228.874L119.588 232.733L119.522 232.793L119.44 232.827L112.551 235.67L112.492 235.693L106.76 236.514L100.293 237.729L100.248 237.738H93.7012L87.2002 237.331L87.1504 237.328L87.1025 237.314L81.0234 235.69L80.9834 235.68L80.9453 235.663L76.502 233.639L71.6387 231.608L71.6221 231.602L65.1221 228.346L65.082 228.325L65.0459 228.298L56.9404 222.207L56.9209 222.193L56.9043 222.177L52.4453 218.116L52.4365 218.108L52.4287 218.1L49.917 215.584L46.9609 217.362L46.9355 217.377L46.9102 217.389L42.4521 219.419L42.3916 219.446L37.4229 220.276H32.0674L32.0225 220.269L27.5645 219.456L27.5039 219.445L27.4473 219.419L22.9893 217.389L22.9805 217.385L18.1084 214.944L18.0781 214.929L18.0488 214.909L11.5645 210.442L11.5391 210.425L11.5156 210.404L7.86816 207.155L7.81543 207.109L7.77832 207.051L4.94141 202.584L2.51562 198.938L2.47266 198.873L0.830078 193.113L0.821289 193.083L0.816406 193.052L0 187.735V183.195L0.00488281 183.16L0.81543 177.475L0.823242 177.424L0.84082 177.375L2.46191 172.908L2.46484 172.9L2.46777 172.894L4.08887 168.833L4.09863 168.807L6.97754 163.45L7.01758 163.405L10.665 159.345L10.7021 159.304L10.7461 159.272L16.4209 155.212L16.458 155.185L16.5 155.165L22.5791 152.322L22.6191 152.304L22.6621 152.293L28.7412 150.668L28.8047 150.651H38.5977L39.7285 145.362L39.7422 145.301L43.0127 138.747L43.0361 138.699L43.0693 138.658L47.9326 132.567L51.1846 128.087L55.7021 123.561L55.7393 123.535L61.0078 119.881L61.0371 119.86L61.0693 119.845L66.7432 117.002L66.752 116.997L74.4531 113.343L74.4736 113.332L74.4961 113.324L78.9541 111.7L78.9746 111.692L78.9961 111.687L85.0762 110.062L85.1221 110.051L85.1689 110.047L90.8428 109.641L90.8613 109.64H102.246L102.266 109.642L107.534 110.047L107.564 110.05L113.673 111.273L113.709 111.281L113.743 111.293L117.989 112.812L116.745 109.07L116.743 109.062L114.717 102.159L114.696 102.09V81.6855L114.7 81.6553L115.916 71.5039L115.919 71.4775L115.925 71.4512L117.141 66.1719L117.145 66.1562L118.766 60.0654L118.771 60.0439L118.779 60.0234L120.4 55.5566L120.414 55.5186L120.433 55.4844L124.486 48.1748L124.497 48.1543L124.511 48.1348L128.969 41.6377L128.979 41.624L134.652 33.9092L134.68 33.873L134.712 33.8418L141.6 27.3467L150.516 18.8193L150.548 18.7891L150.584 18.7656L160.337 12.251L170.924 6.94727L170.946 6.93848L181.483 2.87793L181.537 2.85742L181.593 2.84961L192.94 1.22559L192.96 1.22266L192.979 1.2207L205.543 0.40918L205.552 0.408203L214.062 0.00292969L214.105 0L214.148 0.00585938Z" fill="white" fill-opacity="0.7"/>
</svg>
