<svg width="471" height="283" viewBox="0 0 471 283" fill="none" xmlns="http://www.w3.org/2000/svg">
<path d="M302.066 0.00390625L309.566 1.00293L309.599 1.00684L315.131 2.5127L315.145 2.5166L315.158 2.52148L322.658 5.0166L322.678 5.02344L322.696 5.03125L329.724 8.03809L334.739 10.542L340.239 13.5371L340.28 13.5596L340.316 13.5889L345.816 18.0811L345.822 18.0859L345.829 18.0918L349.829 21.5859L349.842 21.5967L354.863 26.6094L354.873 26.6211L358.854 31.0918L362.873 35.1035L362.891 35.126L366.898 40.127L366.906 40.1387L369.406 43.6328L369.418 43.6484L369.429 43.666L372.429 48.6572L372.453 48.6982L372.47 48.7432L374.462 54.2129L376.473 58.7285L376.482 58.7646L377.985 64.2656L378.985 68.2588L378.988 68.2715L379.988 72.7637L380 72.8174V79.3379L380.499 86.3125L380.501 86.3486L380.499 86.3838L379.999 93.3721L379.998 93.3779L379.498 99.3604L378.999 106.349L378.996 106.393L378.985 106.435L377.485 112.424L377.474 112.468L377.455 112.51L375.062 117.764L377.271 118.866L377.312 118.899L379.812 120.896L379.852 120.928L379.884 120.967L384.884 126.956L384.899 126.976L386.399 128.973L386.427 129.009L386.447 129.049L387.447 131.045L387.456 131.063L389.464 136.074L389.486 136.13L389.495 136.189L389.995 139.684L390.007 139.769L389.99 139.853L389.627 141.663L391.158 142.274L394.143 143.268L397.637 144.265L397.682 144.277L397.724 144.298L405.751 148.305L408.777 150.319L408.799 150.334L408.819 150.351L411.819 152.847L411.864 152.884L414.899 156.923L414.906 156.933L417.406 160.427L417.411 160.433L417.416 160.439L421.416 166.429L421.433 166.455L421.447 166.483L422.947 169.478L422.956 169.496L423.964 172.011L423.97 172.024L425.973 178.024L426.989 180.56L426.997 180.627L427.497 185.119L427.5 185.146V188.704L427.495 188.739L427.452 189.037L430.863 188.186L434.363 187.188L434.399 187.178L438.438 186.674L438.469 186.67H443.021L443.041 186.672L449.041 187.171L449.07 187.173L449.098 187.179L454.098 188.177L454.163 188.19L454.224 188.22L459.296 190.752L459.354 190.809L463.854 195.301L463.869 195.317L466.384 198.329L466.421 198.374L466.447 198.426L468.472 202.468L468.485 202.521L469.485 206.514L469.488 206.526L470.488 211.019L470.492 211.038L470.495 211.057L470.995 214.551L471 214.586V217.651L470.995 217.687L470.495 221.181L469.997 225.657L469.989 225.725L468.975 228.256L467.975 231.251L467.953 231.314L464.916 235.862L464.876 235.923L464.819 235.969L461.819 238.465L461.806 238.477L461.79 238.487L458.29 240.982L458.259 241.006L458.224 241.022L454.224 243.02L454.191 243.035L454.158 243.047L449.611 244.56L449.562 244.565L445.562 245.064L445.531 245.068H436.43L436.363 245.05L432.863 244.051L432.8 244.033L432.743 243.999L425.243 239.507L425.205 239.484L425.171 239.455L421.171 235.961L418.688 233.979L418.682 233.974L415.952 231.638L414.968 234.264L413.964 236.77L413.934 236.846L413.879 236.909L410.879 240.402L410.834 240.455L410.777 240.493L406.277 243.488L406.259 243.5L406.239 243.511L400.739 246.506L400.716 246.519L394.692 249.023L394.671 249.032L394.648 249.039L386.648 251.535L386.616 251.545L386.582 251.551L380.559 252.553L372.059 253.551L372.029 253.554H364.467L364.434 253.55L356.934 252.552L356.876 252.544L356.82 252.522L350.308 250.022L344.308 247.526L344.292 247.52L340.276 245.516L340.236 245.495L340.2 245.469L338.749 244.382L335.3 246.965L335.256 246.998L335.207 247.021L329.707 249.516L329.688 249.524L329.668 249.531L322.668 252.027L322.658 252.03L319.611 253.044L319.562 253.051L315.562 253.55L315.509 253.557L309.955 253.053L309.911 253.048L309.869 253.037L304.369 251.539L304.355 251.536L304.342 251.531L298.298 249.521L298.258 249.498L293.758 247.002L293.75 246.998L293.743 246.994L288.743 243.999L288.71 243.979L288.681 243.954L285.681 241.459L285.636 241.422L285.601 241.375L284.574 240.01L281.404 244.364L281.394 244.38L281.382 244.394L275.882 250.882L275.862 250.905L275.84 250.926L268.84 257.414L268.834 257.419L263.834 261.911L263.812 261.932L263.786 261.949L258.786 265.443L258.779 265.448L258.771 265.453L250.241 270.963L250.209 270.978L243.709 273.973L243.691 273.98L234.173 277.481L234.153 277.488L234.134 277.494L225.134 279.989L225.121 279.993L225.108 279.996L216.108 281.992L216.098 281.994L211.098 282.992L211.05 283.002H198.473L198.445 282.999L189.445 282.001L189.418 281.998L180.392 279.996L180.379 279.993L174.363 278.491L167.363 276.494L167.332 276.486L167.304 276.474L160.304 273.479L160.261 273.461L157.223 271.438L150.738 267.456L150.728 267.449L150.717 267.441L142.717 261.951L142.698 261.938L136.688 256.938L130.195 251.953L130.162 251.928L130.133 251.896L124.133 245.408L124.118 245.393L124.105 245.376L120.605 240.884L120.575 240.845L118.56 236.821L115.571 231.85L115.543 231.803L115.525 231.751L113.381 225.328L109.406 230.884L109.361 230.947L109.3 230.993L105.3 233.988L105.247 234.027L105.186 234.052L100.166 236.057L100.146 236.062L93.6465 238.059L93.6182 238.067L93.5889 238.072L82.5889 240.069L82.5449 240.077H74.4795L74.459 240.075L68.459 239.576L68.4102 239.572L68.3633 239.559L64.8633 238.561L64.7822 238.538L59.7139 234.996L59.6914 234.98L59.6709 234.963L55.6318 231.435L55.6006 231.393L52.8877 227.781L50.3252 229.976L50.3125 229.986L50.2998 229.996L46.2764 233.008L46.252 233.022L40.252 236.517L40.1768 236.56L40.0918 236.575L32.0918 238.073L32.0068 238.089L31.9219 238.075L22.4219 236.578L22.3525 236.567L22.2891 236.537L14.7891 233.044L14.751 233.025L14.7158 233.002L8.21582 228.51L8.15527 228.468L8.10938 228.411L4.10938 223.42L4.07715 223.378L4.05273 223.331L1.55273 218.34L1.53027 218.296L1.51758 218.248L0.0175781 212.758L0 212.692V206.574L0.0146484 206.515L1.51465 200.525L1.52441 200.489L4.03906 194.465L4.05371 194.429L4.07422 194.395L8.07422 187.906L8.10547 187.856L8.14648 187.814L12.1855 183.783L12.2314 183.754L17.7314 180.26L17.7764 180.232L17.8252 180.214L21.8252 178.717L21.8828 178.694L21.9453 178.688L26.4453 178.188L26.4727 178.186H34.0703L34.1367 178.205L37.6367 179.203L37.6582 179.209L39.5 179.822V175.16L40.0039 171.136L40.0156 171.04L40.0635 170.955L42.5635 166.463L42.582 166.43L42.6055 166.398L46.1328 161.872L46.166 161.842L51.2041 157.315L51.248 157.29L57.248 153.796L57.293 153.771L57.3418 153.754L64.8418 151.258L64.8789 151.246L64.918 151.239L70.959 150.234H73V143.217L74.0039 135.2L74.0068 135.174L74.0137 135.147L76.0137 126.662L76.0225 126.623L76.0381 126.586L79.5381 118.102L79.5498 118.073L79.5645 118.047L84.0645 110.061L84.0801 110.032L84.1006 110.006L90.1416 101.965L90.1953 101.924L96.7207 96.9131L96.748 96.8965L102.748 93.4033L102.756 93.3984L102.764 93.3945L109.264 89.9014L109.321 89.8701L109.386 89.8545L117.886 87.8584L117.913 87.8516L117.941 87.8486L126.441 86.8496L126.471 86.8467H135.031L135.062 86.8506L143.062 87.8486L143.105 87.8545L143.146 87.8672L149.646 89.8633L149.709 89.8828L149.765 89.917L153.765 92.4131L153.833 92.4551L153.884 92.5166L156.032 95.0908L159.646 91.4844L159.704 91.4277L164.8 88.8838L164.825 88.875L172.825 85.8799L172.857 85.8682L172.892 85.8604L181.892 83.8643L181.908 83.8604L181.924 83.8574L188.411 82.8604L193.911 81.8633L193.955 81.8555H200.53L201.001 74.3379L201.003 74.3047L201.01 74.2715L203.01 64.2891L203.014 64.2676L203.021 64.2461L205.521 55.7607L205.531 55.7246L205.547 55.6904L209.047 48.2031L209.058 48.1797L209.071 48.1582L213.586 40.6465L213.604 40.623L218.604 34.1348L218.613 34.123L223.113 28.6328L223.127 28.6172L227.127 24.125L227.146 24.1035L231.157 20.1006L231.168 20.0908L235.668 16.0977L235.694 16.0752L235.723 16.0557L243.249 11.0469L249.276 8.03809L256.304 5.03125L256.322 5.02344L256.342 5.0166L263.877 2.50977L263.913 2.50293L272.413 1.00586L272.431 1.00293L272.447 1.00098L281.947 0.00292969L281.974 0H302.033L302.066 0.00390625Z" fill="white" fill-opacity="0.7"/>
</svg>
