<svg width="379" height="268" viewBox="0 0 379 268" fill="none" xmlns="http://www.w3.org/2000/svg">
<path fill-rule="evenodd" clip-rule="evenodd" d="M164.05 0.00292969L174.05 1.00098L174.125 1.00781L187.194 6.52734L187.205 6.53125L187.216 6.53711L198.736 12.0361L198.757 12.0488L206.257 16.54L206.31 16.5723L206.354 16.6152L213.889 24.1367L218.916 31.6631L218.927 31.6787L218.936 31.6953L223.436 39.6807L223.445 39.6973L223.453 39.7148L226.953 47.2002L226.963 47.2227L226.972 47.2451L229.972 55.7295L229.99 55.7822L229.996 55.8379L230.996 64.3223L231.006 64.4023L230.989 64.4824L228.635 75.7607L234.93 74.8643L234.965 74.8594H242.526L242.552 74.8623L252.053 75.8604L252.075 75.8623L252.098 75.8672L259.603 77.3652L269.103 79.3613L269.136 79.3682L269.168 79.3799L276.168 81.875L276.207 81.8906L281.739 84.4014L281.771 84.4209L288.771 88.9121L288.806 88.9355L288.838 88.9639L294.838 94.4541L294.852 94.4668L294.864 94.4795L302.864 102.964L302.875 102.976L302.886 102.989L309.886 111.473L309.925 111.521L309.952 111.577L314.452 121.059L314.476 121.109L314.488 121.165L316.27 129.167L323.371 127.278L323.435 127.262H332.577L332.65 127.285L342.15 130.279L342.171 130.285L342.19 130.294L350.69 133.787L350.754 133.813L357.809 139.346L357.839 139.37L357.865 139.397L364.865 146.884L364.886 146.906L364.904 146.931L368.904 152.421L368.924 152.448L368.94 152.478L372.44 158.966L372.456 158.995L372.468 159.027L375.466 167.008L377.967 173.496L377.984 173.543L377.993 173.594L379 179.623V185.184L378.996 185.213L377.996 193.697L377.993 193.726L377.986 193.754L375.486 204.234L375.483 204.248L373.483 211.733L373.468 211.79L373.44 211.842L369.92 218.368L369.893 218.401L364.36 225.43L358.284 230.483L358.245 230.506L350.245 234.998L350.199 235.023L350.148 235.039L342.148 237.534L342.135 237.539L342.121 237.542L334.121 239.538L334.062 239.554H316.468L316.436 239.549L304.936 238.052L304.852 238.041L304.776 238.004L295.761 233.504L290.261 230.509L290.185 230.468L290.127 230.402L286.146 225.933L282.29 222.083L279.376 225.409L279.324 225.468L279.257 225.509L274.257 228.503L274.189 228.543L274.112 228.562L267.612 230.059L267.611 230.058L259.114 232.054L259.087 232.061L259.059 232.063L250.559 233.062L250.529 233.065H243.462L236.924 232.062L236.888 232.056L236.854 232.045L230.354 230.049L230.321 230.039L230.291 230.025L224.592 227.398L223.487 232.179L223.474 232.237L220.447 238.279L220.439 238.294L220.432 238.308L216.932 244.296L216.909 244.334L216.882 244.367L211.382 250.855L211.345 250.898L211.3 250.932L205.3 255.424L205.285 255.435L205.271 255.444L198.271 259.936L198.253 259.946L198.235 259.956L190.735 263.949L190.67 263.983L190.598 263.998L183.088 265.497L183.078 265.498L173.56 266.999L173.541 267L161.494 268.002L161.448 267.997L151.901 266.994L151.856 266.98L141.856 263.986L141.811 263.973L141.768 263.95L132.268 258.959L132.253 258.952L132.239 258.943L123.239 253.454L123.215 253.438L123.191 253.421L116.191 247.931L116.177 247.919L116.162 247.906L110.162 242.417L110.095 242.354L110.053 242.271L107.059 236.295L103.059 228.809L103.049 228.79L103.041 228.771L100.041 221.783L100.021 221.738L100.011 221.69L98.5107 214.704L98.5 214.652V205.063L98.5107 205.012L98.6328 204.442L96.9092 206.901L96.8555 206.978L96.7773 207.03L92.2773 210.024L92.2705 210.028L92.2646 210.032L88.2646 212.527L88.252 212.536L88.2393 212.543L82.7393 215.537L82.71 215.553L82.6797 215.564L76.1797 218.061L76.1318 218.078L76.082 218.087L67.0703 219.586L60.0703 220.584L60.0352 220.589H43.4072L43.3213 220.556L36.8213 218.061L36.7773 218.044L36.7383 218.02L30.2383 214.026L30.2266 214.02L30.2158 214.012L23.7158 209.521L23.708 209.516L17.7002 205.018L17.6719 204.997L13.127 200.46L13.1094 200.438L9.10938 195.448L9.08887 195.422L6.05664 190.378L6.04492 190.352L3.54492 184.862L3.51953 184.806L3.50781 184.744L2.51074 179.271L1.01074 172.283L1.00879 172.272L0.00683594 166.271L0 166.231V159.141L0.0146484 159.081L2.01465 151.096L2.02051 151.076L4.52051 142.592L4.52246 142.586L6.52246 136.099L6.53418 136.059L9.56152 130.016L9.57129 129.999L12.5713 125.009L12.6035 124.956L12.6465 124.912L15.6602 121.904L15.6748 121.892L19.1748 118.897L19.1836 118.89L19.1934 118.883L23.6934 115.389L23.7031 115.381L23.7139 115.374L28.7139 111.881L28.7227 111.874L33.2227 108.88L33.2832 108.84L33.3535 108.818L39.8535 106.822L39.8848 106.812L39.918 106.807L45.959 105.802H64.5449L64.5889 105.81L70.0889 106.808L70.1055 106.811L74.7129 107.959L72.0713 103.565L72.043 103.518L72.0254 103.466L69.5254 95.9795L69.5137 95.9453L69.5078 95.9082L68.0078 87.4248L68.0039 87.4033L68.002 87.3828L67.002 76.4033L66.998 76.3545L67.0029 76.3057L68.0029 66.8232L68.0059 66.7939L68.0127 66.7646L70.5127 55.7852L70.5176 55.7607L70.5254 55.7383L74.0254 45.2578L74.0371 45.2236L78.5527 36.209L78.5762 36.1631L78.6074 36.123L84.1074 29.1367L84.1201 29.1201L84.1348 29.1045L91.1348 21.6182L91.1455 21.6064L91.1572 21.5957L99.6572 13.6104L99.6924 13.5771L99.7334 13.5518L109.233 7.56348L109.284 7.53027L109.342 7.51172L119.842 4.01855L119.864 4.01074L119.888 4.00488L132.888 1.01074L132.916 1.00391L132.945 1.00098L141.945 0.00292969L141.973 0H164.024L164.05 0.00292969ZM228 76.8574L228.068 76.8408L228.043 76.6592L228 76.8574Z" fill="white" fill-opacity="0.7"/>
</svg>
