<svg width="20" height="20" viewBox="0 0 20 20" fill="none" xmlns="http://www.w3.org/2000/svg">
<path d="M10 2.5C14.8334 2.5 18.7509 5.55333 18.7509 9.32083C18.7509 13.0875 14.8334 16.1408 10.0009 16.1408C9.5197 16.14 9.03906 16.1094 8.56169 16.0492L4.88835 18.4517C4.47085 18.6725 4.32335 18.6483 4.49502 18.1075L5.23835 15.0425C2.83835 13.8258 1.25085 11.7175 1.25085 9.32083C1.25085 5.55417 5.16669 2.5 10 2.5ZM14.9242 9.21667L16.1492 8.03C16.2199 7.95659 16.2593 7.85861 16.2592 7.7567C16.2591 7.6548 16.2194 7.55691 16.1485 7.48367C16.0777 7.41044 15.9811 7.36756 15.8793 7.36408C15.7774 7.36059 15.6782 7.39677 15.6025 7.465L13.9959 9.02V7.735C13.9959 7.63068 13.9544 7.53064 13.8806 7.45687C13.8069 7.38311 13.7068 7.34167 13.6025 7.34167C13.4982 7.34167 13.3982 7.38311 13.3244 7.45687C13.2506 7.53064 13.2092 7.63068 13.2092 7.735V9.86583C13.1953 9.92672 13.1953 9.98995 13.2092 10.0508V11.25C13.2092 11.3543 13.2506 11.4544 13.3244 11.5281C13.3982 11.6019 13.4982 11.6433 13.6025 11.6433C13.7068 11.6433 13.8069 11.6019 13.8806 11.5281C13.9544 11.4544 13.9959 11.3543 13.9959 11.25V10.1142L14.3517 9.77L15.5417 11.4642C15.5714 11.5065 15.6092 11.5425 15.6528 11.5702C15.6964 11.5979 15.7451 11.6167 15.796 11.6256C15.8469 11.6345 15.8991 11.6333 15.9495 11.6221C16 11.6108 16.0477 11.5897 16.09 11.56C16.1323 11.5303 16.1683 11.4925 16.1961 11.4489C16.2238 11.4053 16.2426 11.3566 16.2515 11.3057C16.2604 11.2548 16.2592 11.2026 16.2479 11.1521C16.2367 11.1017 16.2156 11.054 16.1859 11.0117L14.9242 9.21667ZM12.4592 10.82H11.2425V7.7475C11.2379 7.64642 11.1944 7.55103 11.1213 7.48114C11.0481 7.41126 10.9508 7.37227 10.8496 7.37227C10.7484 7.37227 10.6511 7.41126 10.5779 7.48114C10.5048 7.55103 10.4613 7.64642 10.4567 7.7475V11.2133C10.4567 11.43 10.6317 11.6067 10.8492 11.6067H12.4592C12.5635 11.6067 12.6636 11.5652 12.7373 11.4915C12.8111 11.4177 12.8525 11.3177 12.8525 11.2133C12.8525 11.109 12.8111 11.009 12.7373 10.9352C12.6636 10.8614 12.5635 10.82 12.4592 10.82ZM7.57835 9.91083L8.15835 8.4875L8.69002 9.91L7.57835 9.91083ZM9.68085 10.3167L9.68252 10.3033C9.68224 10.2043 9.64442 10.109 9.57669 10.0367L8.70502 7.70333C8.66848 7.59214 8.59888 7.49475 8.50551 7.42416C8.41215 7.35358 8.29946 7.31317 8.18252 7.30833C8.06483 7.30828 7.94987 7.34383 7.85275 7.41031C7.75563 7.47679 7.68089 7.5711 7.63835 7.68083L6.25335 11.0767C6.2139 11.1733 6.21444 11.2815 6.25483 11.3777C6.29523 11.4739 6.37219 11.5501 6.46877 11.5896C6.56535 11.629 6.67365 11.6285 6.76984 11.5881C6.86603 11.5477 6.94224 11.4708 6.98169 11.3742L7.25835 10.6967H8.98335L9.23169 11.3633C9.24863 11.4132 9.2754 11.4591 9.31041 11.4984C9.34542 11.5377 9.38797 11.5696 9.43552 11.5921C9.48307 11.6147 9.53467 11.6275 9.58726 11.6297C9.63984 11.632 9.69234 11.6236 9.74165 11.6052C9.79096 11.5868 9.83607 11.5587 9.87432 11.5225C9.91256 11.4864 9.94316 11.4429 9.9643 11.3947C9.98544 11.3465 9.99669 11.2946 9.99739 11.2419C9.99809 11.1893 9.98821 11.1371 9.96835 11.0883L9.68085 10.3167ZM6.91169 7.75167C6.91191 7.70002 6.90191 7.64884 6.88227 7.60108C6.86264 7.55331 6.83375 7.5099 6.79727 7.47334C6.76079 7.43679 6.71744 7.4078 6.66971 7.38807C6.62199 7.36833 6.57083 7.35822 6.51919 7.35833H3.81502C3.7107 7.35833 3.61066 7.39977 3.53689 7.47354C3.46313 7.5473 3.42169 7.64735 3.42169 7.75167C3.42169 7.85599 3.46313 7.95603 3.53689 8.0298C3.61066 8.10356 3.7107 8.145 3.81502 8.145H4.78169V11.2583C4.78169 11.3627 4.82313 11.4627 4.89689 11.5365C4.97066 11.6102 5.0707 11.6517 5.17502 11.6517C5.27934 11.6517 5.37939 11.6102 5.45315 11.5365C5.52691 11.4627 5.56835 11.3627 5.56835 11.2583V8.145H6.51835C6.57007 8.14522 6.62132 8.1352 6.66914 8.11551C6.71696 8.09582 6.76041 8.06686 6.79697 8.03029C6.83354 7.99372 6.86251 7.95027 6.8822 7.90245C6.90188 7.85463 6.91191 7.80338 6.91169 7.75167Z" fill="black"/>
</svg>
